<svg width="8" height="16" viewBox="0 0 8 16" fill="none" xmlns="http://www.w3.org/2000/svg">
<path d="M6.5 11.5208V6.5C6.5 6.01578 6.26937 5.58441 5.91216 5.30997C6.57631 4.75925 7 3.92816 7 3C7 1.34578 5.65422 0 4 0C2.34578 0 1 1.34578 1 3C1 3.76762 1.28981 4.46887 1.76575 5H1.75C0.922906 5 0.25 5.67291 0.25 6.5V8C0.25 8.74194 0.791469 9.35981 1.5 9.47916V11.5208C0.791469 11.6402 0.25 12.2581 0.25 13V14.5C0.25 15.3271 0.922906 16 1.75 16H6.25C7.07709 16 7.75 15.3271 7.75 14.5V13C7.75 12.2581 7.20853 11.6402 6.5 11.5208V11.5208ZM4 1C5.10456 1 6 1.89544 6 3C6 4.10456 5.10456 5 4 5C2.89544 5 2 4.10456 2 3C2 1.89544 2.89544 1 4 1ZM6.75 14.5C6.75 14.7762 6.52616 15 6.25 15H1.75C1.47384 15 1.25 14.7762 1.25 14.5V13C1.25 12.7238 1.47384 12.5 1.75 12.5H2.5V8.5H1.75C1.47384 8.5 1.25 8.27616 1.25 8V6.5C1.25 6.22384 1.47384 6 1.75 6H5C5.27616 6 5.5 6.22384 5.5 6.5V12.5H6.25C6.52616 12.5 6.75 12.7238 6.75 13V14.5Z" fill="#464646"/>
</svg>
