<svg width="20" height="16" viewBox="0 0 20 16" fill="none" xmlns="http://www.w3.org/2000/svg">
<path d="M19 0H6C5.44781 0 5 0.447812 5 1V4C3.34312 4 2 5.34312 2 7C2 8.65688 3.34312 10 5 10C6.65688 10 8 8.65688 8 7C8 5.69562 7.1625 4.59688 6 4.18375V1H19V12H9.54187C9.52344 11.9706 9.50969 11.9387 9.49031 11.91C8.95125 11.1094 8.03187 10.6878 7.08719 10.6878C6.21875 10.6881 6.00063 11 5 11C4.00094 11 3.78281 10.6881 2.91281 10.6881C1.96812 10.6881 1.04875 11.1094 0.509687 11.9103C0.187812 12.3881 0 12.9638 0 13.5834V14.75C0 15.4403 0.559687 16 1.25 16H8.75C9.44031 16 10 15.4403 10 14.75V13.5834C10 13.3831 9.97375 13.1897 9.93625 13H19C19.5522 13 20 12.5522 20 12V1C20 0.447812 19.5522 0 19 0ZM7 7C7 8.10281 6.10281 9 5 9C3.89719 9 3 8.10281 3 7C3 5.89719 3.89719 5 5 5C6.10281 5 7 5.89719 7 7ZM9 14.75C9 14.8878 8.88781 15 8.75 15H1.25C1.11219 15 1 14.8878 1 14.75V13.5834C1 13.1838 1.11719 12.7981 1.33906 12.4688C1.66812 11.98 2.25625 11.6881 2.91281 11.6881C3.59406 11.6881 3.85 12 5 12C6.14969 12 6.40656 11.6881 7.08719 11.6881C7.74344 11.6881 8.33187 11.98 8.66094 12.4688C8.88281 12.7981 9 13.1838 9 13.5834V14.75V14.75ZM10.5819 4.77156C10.2887 4.47844 9.81437 4.47844 9.52125 4.77156L8.72469 5.56812C8.86719 5.93437 8.95281 6.32344 8.98125 6.72563L10.0516 5.65531L12.0216 7.625C12.1681 7.77156 12.3594 7.84438 12.5519 7.84438C12.7444 7.84438 12.9356 7.77156 13.0822 7.625L14.925 5.78219L15.9637 6.82094C16.0875 6.94469 16.2394 7 16.3888 7C16.7009 7 17.0003 6.7575 17.0003 6.39156V3.40469C17.0003 3.18125 16.8191 3 16.5956 3H13.6088C13.0678 3 12.7969 3.65406 13.1794 4.03656L14.2181 5.07531L12.5522 6.74125L10.5819 4.77156V4.77156ZM16 4V5.44312L14.5569 4H16Z" fill="#464646"/>
</svg>
