<svg width="12" height="16" viewBox="0 0 12 16" fill="none" xmlns="http://www.w3.org/2000/svg">
<path d="M11.5594 3.06055L8.9375 0.438672C8.65625 0.157422 8.275 -0.00195312 7.87813 -0.00195312H1.5C0.671875 0.00117187 0 0.673047 0 1.50117V14.5012C0 15.3293 0.671875 16.0012 1.5 16.0012H10.5C11.3281 16.0012 12 15.3293 12 14.5012V4.12305C12 3.72617 11.8406 3.3418 11.5594 3.06055ZM10.8531 3.76992C10.9187 3.83555 10.9625 3.91367 10.9844 4.00117H8V1.0168C8.0875 1.03867 8.16562 1.08242 8.23125 1.14805L10.8531 3.76992ZM10.5 15.0012H1.5C1.225 15.0012 1 14.7762 1 14.5012V1.50117C1 1.22617 1.225 1.00117 1.5 1.00117H7V4.25117C7 4.6668 7.33437 5.00117 7.75 5.00117H11V14.5012C11 14.7762 10.775 15.0012 10.5 15.0012ZM9 7.37617V7.62617C9 7.83242 8.83125 8.00117 8.625 8.00117H3.375C3.16875 8.00117 3 7.83242 3 7.62617V7.37617C3 7.16992 3.16875 7.00117 3.375 7.00117H8.625C8.83125 7.00117 9 7.16992 9 7.37617ZM9 9.37617V9.62617C9 9.83242 8.83125 10.0012 8.625 10.0012H3.375C3.16875 10.0012 3 9.83242 3 9.62617V9.37617C3 9.16992 3.16875 9.00117 3.375 9.00117H8.625C8.83125 9.00117 9 9.16992 9 9.37617ZM9 11.3762V11.6262C9 11.8324 8.83125 12.0012 8.625 12.0012H3.375C3.16875 12.0012 3 11.8324 3 11.6262V11.3762C3 11.1699 3.16875 11.0012 3.375 11.0012H8.625C8.83125 11.0012 9 11.1699 9 11.3762Z" fill="#464646"/>
</svg>
